<svg width="24" height="24" viewBox="0 0 24 24" fill="none" xmlns="http://www.w3.org/2000/svg">
<path fill-rule="evenodd" clip-rule="evenodd" d="M18 3C19.6569 3 21 4.34315 21 6V18C21 19.6569 19.6569 21 18 21H6C4.34315 21 3 19.6569 3 18V6C3 4.34315 4.34315 3 6 3H18ZM8 10C7.44772 10 7 10.4477 7 11V16C7 16.5523 7.44772 17 8 17C8.55228 17 9 16.5523 9 16V11C9 10.4477 8.55228 10 8 10ZM11 9C10.4477 9 10 9.44772 10 10V16C10 16.5523 10.4477 17 11 17C11.5523 17 12 16.5523 12 16V12.3398C12.3049 11.9955 12.8207 11.5921 13.3933 11.3472C13.7261 11.2048 14.2268 11.1479 14.5751 11.2574C14.7274 11.3053 14.8143 11.3726 14.868 11.4451C14.9201 11.5157 15 11.6707 15 12V16C15 16.5522 15.4477 17 16 17C16.5523 17 17 16.5522 17 16V12C17 11.3292 16.8298 10.7342 16.4758 10.2556C16.1232 9.77907 15.6476 9.4981 15.1749 9.34949C14.2732 9.06594 13.2739 9.22295 12.6067 9.50837C12.395 9.59892 12.1863 9.70435 11.9841 9.82128C11.8998 9.35427 11.4913 9 11 9ZM8 7C7.44772 7 7 7.44772 7 8C7 8.55228 7.44772 9 8 9C8.55228 9 9 8.55228 9 8C9 7.44772 8.55228 7 8 7Z" fill="#FFF"/>
</svg>
